<svg width="17" height="20" viewBox="0 0 17 20" fill="none" xmlns="http://www.w3.org/2000/svg">
<path d="M8.30664 19.8612C7.77269 19.8612 7.31503 19.6683 6.93364 19.2825C6.55225 18.8967 6.36156 18.4414 6.36156 17.9168H10.2517C10.2517 18.4414 10.061 18.8967 9.67964 19.2825C9.29825 19.6683 8.84058 19.8612 8.30664 19.8612ZM14.6453 13.9353L16.6133 15.926V16.8982H0V15.926L1.96796 13.9353V8.51861C1.96796 7.00626 2.42563 5.67138 3.34096 4.51398C4.25629 3.35657 5.41571 2.60811 6.81922 2.26861V1.62046C6.81922 1.18836 6.96415 0.833422 7.25401 0.555644C7.54386 0.277866 7.89474 0.138977 8.30664 0.138977C8.71854 0.138977 9.06179 0.277866 9.33639 0.555644C9.61098 0.833422 9.74829 1.18836 9.74829 1.62046V2.26861C11.1823 2.60811 12.357 3.35657 13.2723 4.51398C14.1876 5.67138 14.6453 7.00626 14.6453 8.51861V13.9353Z" fill="#26334A"/>
</svg>
